#!OML:ASF H:\Not Pregnant\Project 1\Capture day 1\Session 1\non-pregnant.ASF
:FULLY-SPECIFIED
:DEGREES
753
root 6.42792 15.7743 34.999 15.9902 -17.2505 -3.86383
lowerback -6.70108 -0.533559 -0.308434
upperback -8.89817 -0.791485 -0.347762
thorax -5.50286 -0.420843 -0.200361
lowerneck 39.2776 -17.4333 -24.6473
upperneck -32.1662 -27.521 49.33
head -3.04945 -19.3543 28.0479
rclavicle 5.20816e-014 1.98785e-014
rhumerus -36.892 -5.14852 -87.9472
rradius 26.0031
rwrist 25.981
rhand -9.04235 0.183159
rfingers 7.12502
rthumb 16.9057 -29.101
lclavicle 5.20816e-014 1.98785e-014
lhumerus -39.3778 -2.57243 84.0402
lradius 38.8008
lwrist 37.2696
lhand -18.6218 -13.4441
lfingers 7.12502
lthumb 7.67023 16.3968
rfemur -32.8058 -3.66857 27.5095
rtibia 34.5699
rfoot -11.7262 -6.94995
rtoes -11.5361
lfemur -28.2943 6.11219 -21.8398
ltibia 31.8988
lfoot -18.3382 -9.39134
ltoes -13.7438
754
root 6.41333 15.7707 35.0389 15.9591 -17.4078 -3.84351
lowerback -6.75297 -0.506997 -0.271437
upperback -8.91975 -0.758107 -0.358435
thorax -5.4975 -0.407134 -0.231951
lowerneck 39.3286 -17.4091 -24.6924
upperneck -32.0936 -27.5345 49.2707
head -3.03878 -19.3489 28.0031
rclavicle 4.07509e-014 8.74653e-015
rhumerus -36.9965 -5.34508 -87.7298
rradius 25.636
rwrist 26.4414
rhand -8.97219 0.220498
rfingers 7.12502
rthumb 16.9732 -29.0579
lclavicle 4.07509e-014 8.74653e-015
lhumerus -39.5177 -2.45225 84.1368
lradius 38.8121
lwrist 37.2576
lhand -18.6243 -13.4497
lfingers 7.12502
lthumb 7.66774 16.3913
rfemur -32.5705 -3.42918 27.4052
rtibia 34.5165
rfoot -11.803 -6.94875
rtoes -11.7067
lfemur -28.0898 6.35114 -21.8833
ltibia 31.9151
lfoot -18.5167 -9.44983
ltoes -13.7047
755
root 6.39841 15.7672 35.078 15.9263 -17.5694 -3.82011
lowerback -6.77618 -0.48428 -0.250816
upperback -8.95578 -0.729482 -0.359381
thorax -5.52345 -0.394511 -0.24394
lowerneck 39.3827 -17.3759 -24.7484
upperneck -32.0162 -27.5435 49.2063
head -3.0285 -19.3393 27.9607
rclavicle -2.24627e-014 -2.62396e-014
rhumerus -37.1144 -5.54176 -87.4913
rradius 25.2716
rwrist 26.9137
rhand -8.8672 0.242051
rfingers 7.12502
rthumb 17.0743 -29.0276
lclavicle -2.24627e-014 -2.62396e-014
lhumerus -39.704 -2.289 84.2361
lradius 38.812
lwrist 37.2439
lhand -18.6426 -13.4444
lfingers 7.12502
lthumb 7.65008 16.3973
rfemur -32.3412 -3.21626 27.3069
rtibia 34.4535
rfoot -11.8557 -6.94557
rtoes -12.0109
lfemur -27.8852 6.57068 -21.9235
ltibia 31.9303
lfoot -18.6849 -9.48731
ltoes -13.6754
756
root 6.38333 15.7635 35.1165 15.8826 -17.7429 -3.79434
lowerback -6.77186 -0.464157 -0.242163
upperback -8.99388 -0.703971 -0.354962
thorax -5.56687 -0.382523 -0.243429
lowerneck 39.4267 -17.3381 -24.8048
upperneck -31.9342 -27.5454 49.1395
head -3.01904 -19.3248 27.9179
rclavicle -3.0911e-014 -7.95139e-016
rhumerus -37.2287 -5.74041 -87.2412
rradius 24.9116
rwrist 27.3979
rhand -8.72966 0.245698
rfingers 7.12502
rthumb 17.2067 -29.0125
lclavicle -3.0911e-014 -7.95139e-016
lhumerus -39.9168 -2.08916 84.3289
lradius 38.7956
lwrist 37.2342
lhand -18.6661 -13.4212
lfingers 7.12502
lthumb 7.62749 16.4212
rfemur -32.1141 -3.03759 27.2176
rtibia 34.3961
rfoot -11.9022 -6.91152
rtoes -12.3631
lfemur -27.6696 6.76243 -21.9589
ltibia 31.9476
lfoot -18.85 -9.47812
ltoes -13.6986
757
root 6.36837 15.7597 35.1554 15.8383 -17.9223 -3.79427
lowerback -6.76918 -0.441725 -0.203967
upperback -9.0209 -0.675743 -0.344554
thorax -5.59767 -0.37072 -0.253243
lowerneck 39.4585 -17.3002 -24.8538
upperneck -31.8606 -27.5399 49.0813
head -3.0125 -19.3081 27.884
rclavicle 1.43125e-014 1.11319e-014
rhumerus -37.3177 -5.95733 -86.9812
rradius 24.5465
rwrist 27.8903
rhand -8.5712 0.23559
rfingers 7.12502
rthumb 17.3592 -29.0092
lclavicle 1.43125e-014 1.11319e-014
lhumerus -40.137 -1.86128 84.4141
lradius 38.7579
lwrist 37.2254
lhand -18.6883 -13.3887
lfingers 7.12502
lthumb 7.60603 16.4545
rfemur -31.8868 -2.89996 27.1678
rtibia 34.351
rfoot -11.9603 -6.83073
rtoes -12.7004
lfemur -27.4437 6.92629 -21.9615
ltibia 31.9713
lfoot -19.0131 -9.42132
ltoes -13.762
758
root 6.35348 15.756 35.1949 15.7983 -18.1075 -3.82405
lowerback -6.78532 -0.413369 -0.127231
upperback -9.0327 -0.64016 -0.330279
thorax -5.60181 -0.35741 -0.280709
lowerneck 39.4738 -17.2698 -24.8907
upperneck -31.7954 -27.533 49.0323
head -3.006 -19.2926 27.8517
rclavicle 9.93923e-015 -1.59028e-015
rhumerus -37.381 -6.19232 -86.7131
rradius 24.1827
rwrist 28.3833
rhand -8.37567 0.193767
rfingers 7.12502
rthumb 17.5473 -29.0343
lclavicle 9.93923e-015 -1.59028e-015
lhumerus -40.3609 -1.61519 84.4959
lradius 38.6992
lwrist 37.2188
lhand -18.713 -13.3586
lfingers 7.12502
lthumb 7.58215 16.4855
rfemur -31.6596 -2.80321 27.1615
rtibia 34.3195
rfoot -12.0375 -6.70788
rtoes -12.9829
lfemur -27.2114 7.06762 -21.9277
ltibia 32.0037
lfoot -19.1731 -9.33024
ltoes -13.8257
759
root 6.33872 15.7524 35.2353 15.7674 -18.299 -3.88465
lowerback -6.8239 -0.37925 -0.0102987
upperback -9.03349 -0.597652 -0.311712
thorax -5.58174 -0.342898 -0.326293
lowerneck 39.4763 -17.243 -24.9198
upperneck -31.7334 -27.5241 48.9932
head -2.99792 -19.2783 27.8235
rclavicle -4.90998e-014 6.36111e-015
rhumerus -37.4269 -6.44142 -86.4377
rradius 23.8229
rwrist 28.8848
rhand -8.16893 0.147541
rfingers 7.12502
rthumb 17.7463 -29.0627
lclavicle -4.90998e-014 6.36111e-015
lhumerus -40.5918 -1.35368 84.5743
lradius 38.6171
lwrist 37.2143
lhand -18.7326 -13.3252
lfingers 7.12502
lthumb 7.56327 16.5195
rfemur -31.4344 -2.73854 27.1966
rtibia 34.299
rfoot -12.1334 -6.55634
rtoes -13.2084
lfemur -26.9756 7.19217 -21.8595
ltibia 32.0421
lfoot -19.3332 -9.20672
ltoes -13.9097
760
root 6.32404 15.7489 35.277 15.7401 -18.5113 -3.96221
lowerback -6.88106 -0.340804 0.125894
upperback -9.0271 -0.549791 -0.2876
thorax -5.54352 -0.326638 -0.376912
lowerneck 39.4685 -17.214 -24.9488
upperneck -31.6685 -27.511 48.9586
head -2.9879 -19.2624 27.798
rclavicle -4.36332e-014 -2.14687e-014
rhumerus -37.4616 -6.68995 -86.157
rradius 23.4714
rwrist 29.388
rhand -7.94352 0.0848502
rfingers 7.12502
rthumb 17.9632 -29.1056
lclavicle -4.36332e-014 -2.14687e-014
lhumerus -40.8369 -1.07516 84.6522
lradius 38.5093
lwrist 37.2179
lhand -18.7584 -13.2899
lfingers 7.12502
lthumb 7.53832 16.5557
rfemur -31.2058 -2.69177 27.2515
rtibia 34.2856
rfoot -12.2483 -6.37742
rtoes -13.3762
lfemur -26.7275 7.30403 -21.7738
ltibia 32.0809
lfoot -19.4919 -9.04568
ltoes -14.011
761
root 6.30921 15.746 35.3186 15.7263 -18.729 -4.0274
lowerback -6.96354 -0.303906 0.252582
upperback -9.02112 -0.504215 -0.267023
thorax -5.4914 -0.311055 -0.426055
lowerneck 39.4366 -17.1829 -24.9766
upperneck -31.5838 -27.4929 48.9272
head -2.96971 -19.2438 27.7666
rclavicle -5.06901e-015 -1.59028e-014
rhumerus -37.4905 -6.94241 -85.8745
rradius 23.1377
rwrist 29.9081
rhand -7.73579 0.0418177
rfingers 7.12502
rthumb 18.1631 -29.1302
lclavicle -5.06901e-015 -1.59028e-014
lhumerus -41.0941 -0.792205 84.7294
lradius 38.3819
lwrist 37.2274
lhand -18.7805 -13.2324
lfingers 7.12502
lthumb 7.51698 16.614
rfemur -30.9969 -2.66953 27.3006
rtibia 34.2744
rfoot -12.3721 -6.18061
rtoes -13.5119
lfemur -26.4944 7.4093 -21.7026
ltibia 32.1149
lfoot -19.6381 -8.89063
ltoes -14.0739
762
root 6.29427 15.7432 35.3605 15.7157 -18.9594 -4.09414
lowerback -7.04859 -0.27212 0.374842
upperback -9.01469 -0.465491 -0.240464
thorax -5.43728 -0.298391 -0.466561
lowerneck 39.3917 -17.144 -25.0079
upperneck -31.4895 -27.4663 48.9016
head -2.94805 -19.2214 27.7412
rclavicle 2.0276e-014 6.36111e-015
rhumerus -37.5144 -7.18917 -85.589
rradius 22.8193
rwrist 30.4443
rhand -7.53448 0.0146297
rfingers 7.12502
rthumb 18.3567 -29.1392
lclavicle 2.0276e-014 6.36111e-015
lhumerus -41.3706 -0.493109 84.8025
lradius 38.2349
lwrist 37.2423
lhand -18.8057 -13.1722
lfingers 7.12502
lthumb 7.49266 16.6751
rfemur -30.787 -2.66378 27.3543
rtibia 34.2589
rfoot -12.5057 -5.96604
rtoes -13.6353
lfemur -26.256 7.51411 -21.6324
ltibia 32.1426
lfoot -19.7801 -8.72108
ltoes -14.1667
763
root 6.27919 15.7406 35.4026 15.7123 -19.1985 -4.16694
lowerback -7.14213 -0.241181 0.499041
upperback -9.0067 -0.428189 -0.209763
thorax -5.37668 -0.286344 -0.503851
lowerneck 39.3359 -17.1029 -25.0359
upperneck -31.3896 -27.4337 48.8766
head -2.92629 -19.1957 27.7157
rclavicle 3.84648e-014 -3.97569e-015
rhumerus -37.5319 -7.45019 -85.293
rradius 22.5168
rwrist 30.9982
rhand -7.34071 0.00537603
rfingers 7.12502
rthumb 18.5431 -29.1308
lclavicle 3.84648e-014 -3.97569e-015
lhumerus -41.6652 -0.189897 84.8778
lradius 38.0706
lwrist 37.2475
lhand -18.8269 -13.0896
lfingers 7.12502
lthumb 7.47225 16.7584
rfemur -30.5763 -2.67898 27.4187
rtibia 34.2346
rfoot -12.6502 -5.73359
rtoes -13.7575
lfemur -26.0183 7.62972 -21.5596
ltibia 32.1639
lfoot -19.9134 -8.56449
ltoes -14.225
764
root 6.26369 15.7382 35.4439 15.7195 -19.4421 -4.24669
lowerback -7.23231 -0.212827 0.619381
upperback -9.00301 -0.394432 -0.173806
thorax -5.32253 -0.275657 -0.533473
lowerneck 39.2739 -17.0641 -25.056
upperneck -31.2875 -27.3985 48.8507
head -2.906 -19.1687 27.6876
rclavicle 2.51463e-014 -4.77083e-015
rhumerus -37.5491 -7.71834 -84.9914
rradius 22.2319
rwrist 31.5686
rhand -7.17604 0.0281818
rfingers 7.12502
rthumb 18.7015 -29.0928
lclavicle 2.51463e-014 -4.77083e-015
lhumerus -41.9796 0.112271 84.9561
lradius 37.8884
lwrist 37.2432
lhand -18.8439 -13.004
lfingers 7.12502
lthumb 7.45579 16.8446
rfemur -30.369 -2.70494 27.4964
rtibia 34.1972
rfoot -12.7964 -5.49591
rtoes -13.8754
lfemur -25.7912 7.76022 -21.4811
ltibia 32.1831
lfoot -20.0399 -8.42399
ltoes -14.2704
765
root 6.24792 15.7359 35.4846 15.7322 -19.6857 -4.32826
lowerback -7.32189 -0.189033 0.735704
upperback -8.99772 -0.366874 -0.135698
thorax -5.26704 -0.2677 -0.558699
lowerneck 39.198 -17.0259 -25.066
upperneck -31.183 -27.3562 48.8264
head -2.88771 -19.1383 27.6597
rclavicle -3.49861e-014 -9.54166e-015
rhumerus -37.5576 -7.99776 -84.6897
rradius 21.9658
rwrist 32.1402
rhand -7.04603 0.0671736
rfingers 7.12502
rthumb 18.8266 -29.0418
lclavicle -3.49861e-014 -9.54166e-015
lhumerus -42.3048 0.406866 85.037
lradius 37.6859
lwrist 37.2216
lhand -18.8495 -12.9084
lfingers 7.12502
lthumb 7.45046 16.9404
rfemur -30.161 -2.75343 27.5822
rtibia 34.1469
rfoot -12.9511 -5.24394
rtoes -13.986
lfemur -25.5705 7.90736 -21.4034
ltibia 32.2006
lfoot -20.1631 -8.30438
ltoes -14.2994
766
root 6.2317 15.7336 35.5246 15.7488 -19.9377 -4.40815
lowerback -7.41234 -0.16582 0.840508
upperback -8.99298 -0.339975 -0.0953876
thorax -5.21157 -0.259281 -0.575152
lowerneck 39.1197 -16.9888 -25.0714
upperneck -31.0807 -27.312 48.8073
head -2.87 -19.1083 27.636
rclavicle 3.96575e-014 2.70347e-014
rhumerus -37.5672 -8.25266 -84.403
rradius 21.735
rwrist 32.6547
rhand -6.9267 0.0828716
rfingers 7.12502
rthumb 18.9413 -29.0149
lclavicle 3.96575e-014 2.70347e-014
lhumerus -42.6462 0.685093 85.1314
lradius 37.4628
lwrist 37.1911
lhand -18.8534 -12.817
lfingers 7.12502
lthumb 7.44664 17.0319
rfemur -29.9529 -2.80283 27.6679
rtibia 34.0869
rfoot -13.1097 -4.9875
rtoes -14.0826
lfemur -25.355 8.07398 -21.3295
ltibia 32.2159
lfoot -20.2851 -8.19761
ltoes -14.3337
